<svg xmlns="http://www.w3.org/2000/svg" data-name="Layer 1" viewBox="0 0 512 512"><path fill="#ed4769" d="M504.5,352.92172V416.5018a29.99824,29.99824,0,0,1-30,30H37.5a29.99824,29.99824,0,0,1-30-30V264.04159a29.99808,29.99808,0,0,1,30-30H341.79a30.023,30.023,0,0,1,20.22,7.84009l66.41,60.62012.18.06982,56.9,22.43994a30.02234,30.02234,0,0,1,19,27.91016Z"/><circle cx="113.5" cy="446.5" r="58" fill="#8b8893"/><path fill="#787681" d="M113.5,388.49985a58.05269,58.05269,0,0,0-15,1.96948,58.005,58.005,0,0,1,0,112.06128,58.00173,58.00173,0,1,0,15-114.03076Z"/><circle cx="113.5" cy="446.5" r="18" fill="#fff"/><path fill="#e1e1e3" d="M113.5,428.49985a17.86722,17.86722,0,0,0-7.5,1.6582,17.96706,17.96706,0,0,1,0,32.68384,17.99178,17.99178,0,1,0,7.5-34.342Z"/><circle cx="383.5" cy="446.5" r="58" fill="#8b8893"/><path fill="#787681" d="M383.5,388.49985a58.05269,58.05269,0,0,0-15,1.96948,58.005,58.005,0,0,1,0,112.06128,58.00173,58.00173,0,1,0,15-114.03076Z"/><circle cx="383.5" cy="446.5" r="18" fill="#fff"/><path fill="#e1e1e3" d="M383.5,428.49985a17.86722,17.86722,0,0,0-7.5,1.6582,17.96706,17.96706,0,0,1,0,32.68384,17.99178,17.99178,0,1,0,7.5-34.342Z"/><path fill="#a8d9f5" d="M428.6,302.57162l-.1.31006H7.5V264.04159a29.99808,29.99808,0,0,1,30-30H341.79a30.023,30.023,0,0,1,20.22,7.84009l66.41,60.62012Z"/><path fill="#83c9ee" d="M428.42,302.5018l-66.41-60.62012a30.023,30.023,0,0,0-20.22-7.84009h-45a30.023,30.023,0,0,1,20.22,7.84009l66.41,60.62012.18.06982-.1.31006h45l.1-.31006Z"/><path fill="#fee27d" d="M7.5,333.5H45.4866A13.0134,13.0134,0,0,1,58.5,346.5134V360.4866A13.0134,13.0134,0,0,1,45.4866,373.5H7.5a0,0,0,0,1,0,0v-40A0,0,0,0,1,7.5,333.5Z"/><path fill="#fff" d="M504.5,352.91992V373.5H466.51a13.01676,13.01676,0,0,1-13.01-13.01V346.51a13.01676,13.01676,0,0,1,13.01-13.01h30.85A29.98568,29.98568,0,0,1,504.5,352.91992Z"/><path fill="#8b8893" d="M504.5,511.61166H7.5a7.5,7.5,0,0,1,0-15h497a7.5,7.5,0,0,1,0,15Z"/><path d="M347.44971,361.00033h.10107a7.5,7.5,0,0,0,0-15h-.10107a7.5,7.5,0,0,0,0,15Zm-61.00049,0h.10156a7.5,7.5,0,0,0,0-15h-.10156a7.5,7.5,0,0,0,0,15Zm122.05078,0a7.5,7.5,0,0,0,0-15h-.0498a7.5,7.5,0,0,0,.0498,15Zm-30.55029,0h.10156a7.5,7.5,0,0,0,0-15h-.10156a7.5,7.5,0,0,0,0,15Zm-61,0h.10107a7.5,7.5,0,0,0,0-15h-.10107a7.5,7.5,0,0,0,0,15Zm-203.44971,60a25.5,25.5,0,1,0,25.5,25.5A25.52914,25.52914,0,0,0,113.5,421.00033Zm0,36a10.5,10.5,0,1,1,10.5-10.5A10.5118,10.5118,0,0,1,113.5,457.00033Zm142.44922-96h.10156a7.5,7.5,0,0,0,0-15h-.10156a7.5,7.5,0,0,0,0,15Zm127.55078,60a25.5,25.5,0,1,0,25.5,25.5A25.52914,25.52914,0,0,0,383.5,421.00033Zm0,36a10.5,10.5,0,1,1,10.5-10.5A10.5118,10.5118,0,0,1,383.5,457.00033Zm65.05762-3H474.5a37.54226,37.54226,0,0,0,37.5-37.5V352.92026a37.52893,37.52893,0,0,0-8.81891-24.14551c-.02038-.02515-.04034-.0503-.06109-.0752-.01386-.01636-.02656-.03345-.04041-.0498a37.533,37.533,0,0,0-14.82813-10.61719l-55.79492-22.00293L367.062,236.33725a37.44178,37.44178,0,0,0-25.272-9.79688H37.5a37.54227,37.54227,0,0,0-37.5,37.5v152.46a37.54226,37.54226,0,0,0,37.5,37.5H48.44238A65.46135,65.46135,0,0,0,71.394,496.61166H7.5a7.5,7.5,0,0,0,0,15h98.97144a63.74523,63.74523,0,0,0,14.05712,0H376.47144a63.74523,63.74523,0,0,0,14.05712,0H504.5a7.5,7.5,0,0,0,0-15H425.606A65.46135,65.46135,0,0,0,448.55762,454.00033Zm44.99572-113A22.49475,22.49475,0,0,1,497,352.92026v13.08007H466.50977A5.51623,5.51623,0,0,1,461,360.48959V346.5101a5.516,5.516,0,0,1,5.50977-5.50977Zm-216.212-99.46H341.79a22.46813,22.46813,0,0,1,15.16357,5.87891l52.54291,47.96191H277.34131Zm-135,0h120v53.84082h-120ZM15,264.04037a22.52554,22.52554,0,0,1,22.5-22.5h89.84131v53.84082H15Zm0,76.96H45.48682A5.51893,5.51893,0,0,1,51,346.513v13.97363a5.51976,5.51976,0,0,1-5.51318,5.51367H15Zm22.5,98a22.52554,22.52554,0,0,1-22.5-22.5v-35.5H45.48682A20.53648,20.53648,0,0,0,66,360.48666V346.513a20.53628,20.53628,0,0,0-20.51318-20.5127H15V310.38119H427.95911l39.60681,15.61914h-1.05615A20.53274,20.53274,0,0,0,446,346.5101v13.97949a20.53357,20.53357,0,0,0,20.50977,20.51074H497v35.5a22.52554,22.52554,0,0,1-22.5,22.5H448.55762a65.487,65.487,0,0,0-130.11524,0H178.55762a65.487,65.487,0,0,0-130.11524,0Zm82.15594,57.61133H107.34406a50.5,50.5,0,1,1,12.31188,0Zm35.95,0a65.46135,65.46135,0,0,0,22.95166-42.61133H318.44238A65.46135,65.46135,0,0,0,341.394,496.61166Zm234.05,0H377.34406a50.5,50.5,0,1,1,12.31188,0ZM103.5498,361.00033a7.5,7.5,0,0,0,0-15H103.5a7.5,7.5,0,0,0,.0498,15Zm30.39893,0h.10156a7.5,7.5,0,0,0,0-15h-.10156a7.5,7.5,0,0,0,0,15Zm91.50049,0h.10107a7.5,7.5,0,0,0,0-15h-.10107a7.5,7.5,0,0,0,0,15Zm-30.5,0h.10107a7.5,7.5,0,0,0,0-15h-.10107a7.5,7.5,0,0,0,0,15Zm-30.50049,0h.10156a7.5,7.5,0,0,0,0-15h-.10156a7.5,7.5,0,0,0,0,15Z"/></svg>