<svg xmlns="http://www.w3.org/2000/svg" data-name="Layer 1" viewBox="0 0 512 512"><path fill="#d9f0ff" d="M385.16016,93.98621V337.13635a20.00756,20.00756,0,0,1-20,20H23.75a20.001,20.001,0,0,1-20-20V93.98621a19.99443,19.99443,0,0,1,20-20H365.16016A20.001,20.001,0,0,1,385.16016,93.98621Z"/><path fill="#676e87" d="M385.16016,301.30627v35.83008a20.00716,20.00716,0,0,1-16.23023,19.6399,19.51268,19.51268,0,0,1-3.76977.3601H23.75a20.001,20.001,0,0,1-20-20V301.30627Z"/><path fill="#595f74" d="M227.34139,430.5135H116.567a7.976,7.976,0,0,1-6.9598-11.872l13.09252-23.38887a49.1403,49.1403,0,0,0,4.18994-38.11858v0h90.12907v0a49.14034,49.14034,0,0,0,4.18993,38.11858l13.09252,23.38887A7.976,7.976,0,0,1,227.34139,430.5135Z"/><path fill="#b3e0ff" d="M436.74,181.91614H187.79a20.001,20.001,0,0,0-20,20v99.39013H456.74V201.91614A19.99458,19.99458,0,0,0,436.74,181.91614ZM424.42993,360.79626h-55.5V281.44617a22.52115,22.52115,0,0,1,22.5-22.5h33Z"/><path fill="#595f74" d="M167.79,301.30627v55.83008H365.16016a19.51268,19.51268,0,0,0,3.76977-.3601v-55.47Z"/><path fill="#4a4f60" d="M167.79,356.77625l.39187,36.33,200.748-.00019V356.77625Z"/><path fill="#676e87" d="M451.74,181.91614H202.79a20.001,20.001,0,0,0-20,20V393.10608H471.74V201.91614A19.99458,19.99458,0,0,0,451.74,181.91614ZM439.42993,360.79626h-55.5V281.44617a22.52115,22.52115,0,0,1,22.5-22.5h33Z"/><path fill="#d9f0ff" d="M439.42993,214.2262v44.72h-33a22.52115,22.52115,0,0,0-22.5,22.5v79.35009H215.1001V214.2262Z"/><path fill="#4a4f60" d="M474.28,396.02625v14.49a20.00725,20.00725,0,0,1-20,20H170.26a20.00084,20.00084,0,0,1-20-20v-14.49a2.92352,2.92352,0,0,1,2.91992-2.92017H471.3501A2.92567,2.92567,0,0,1,474.28,396.02625Z"/><path fill="#595f74" d="M489.28,396.02625v14.49a20.00725,20.00725,0,0,1-20,20H185.26a20.00084,20.00084,0,0,1-20-20v-14.49a2.92352,2.92352,0,0,1,2.91992-2.92017H486.3501A2.92567,2.92567,0,0,1,489.28,396.02625Z"/><path fill="#b3e0ff" d="M493.25,360.79626V281.44617a22.50948,22.50948,0,0,0-21.51-22.47q-.49474-.03-.99-.03H406.42993a22.52115,22.52115,0,0,0-22.5,22.5v79.35009Zm-15,54.72a7.50914,7.50914,0,0,1-7.5,7.5H406.42993a7.5093,7.5093,0,0,1-7.5-7.5V281.44617a7.50287,7.50287,0,0,1,7.5-7.5H470.75a6.404,6.404,0,0,1,.99.07007,7.50107,7.50107,0,0,1,6.51,7.42993Z"/><path fill="#4a4f60" d="M486.3501,393.10608H478.25v22.41016a7.50914,7.50914,0,0,1-7.5,7.5H406.42993a7.5093,7.5093,0,0,1-7.5-7.5V393.10608h-15v22.41016a22.35428,22.35428,0,0,0,5.75,15H469.28a20.00725,20.00725,0,0,0,20-20v-14.49A2.92567,2.92567,0,0,0,486.3501,393.10608Z"/><path fill="#595f74" d="M470.75,258.94617H439.42993v15H470.75a6.404,6.404,0,0,1,.99.07007v-15.04Q471.24525,258.94617,470.75,258.94617ZM383.92993,393.10608h15V360.79626h-15Z"/><rect width="94.322" height="164.072" x="406.428" y="266.441" fill="#d9f0ff" rx="15"/><path fill="#676e87" d="M485.75,438.01379H421.42822a22.52554,22.52554,0,0,1-22.5-22.5V281.44153a22.52554,22.52554,0,0,1,22.5-22.5H485.75a22.52554,22.52554,0,0,1,22.5,22.5V415.51379A22.52554,22.52554,0,0,1,485.75,438.01379ZM421.42822,273.94153a7.5082,7.5082,0,0,0-7.5,7.5V415.51379a7.5082,7.5082,0,0,0,7.5,7.5H485.75a7.5082,7.5082,0,0,0,7.5-7.5V281.44153a7.5082,7.5082,0,0,0-7.5-7.5Z"/><circle cx="453.589" cy="400.514" r="7.5" fill="#676e87"/></svg>