<svg xmlns="http://www.w3.org/2000/svg" data-name="Layer 1" viewBox="0 0 512 512"><path fill="#66c1ff" d="M93.16016 489.76706A7.502 7.502 0 0 1 85.75 483.36277l-6.56934-44.44239a7.4996 7.4996 0 0 1 6.32276-8.51562l44.44238-6.56934a7.49956 7.49956 0 1 1 2.19336 14.83789l-37.023 5.47266 5.47266 37.02344a7.509 7.509 0 0 1-7.42871 8.59765zM454.09668 113.38035a7.49135 7.49135 0 0 1-5.97559-2.959c-1.46191-1.92285-2.97265-3.84668-4.48925-5.71875a7.5 7.5 0 1 1 11.65429-9.44336c1.61328 1.99024 3.21875 4.03613 4.77442 6.08008a7.50064 7.50064 0 0 1-5.96387 12.041z"/><path fill="#66c1ff" d="M252.49609,511.97605c-.03515,0-.06982,0-.10547-.001-4.99609-.06836-10.05371-.28418-15.03173-.63965a7.49951,7.49951,0,1,1,1.06836-14.96093c4.69238.335,9.46.53711,14.17041.60254a7.49987,7.49987,0,0,1-.10157,14.999Zm29.1709-1.27637a7.50034,7.50034,0,0,1-.752-14.96191c4.68359-.47754,9.40723-1.09961,14.041-1.84864a7.50032,7.50032,0,0,1,2.39258,14.8086c-4.92187.79492-9.93847,1.45508-14.91211,1.96191A7.59358,7.59358,0,0,1,281.667,510.69968Zm-72.72558-3.12207a7.50739,7.50739,0,0,1-1.4126-.13379c-4.91406-.93652-9.85986-2.03222-14.69873-3.25488a7.50016,7.50016,0,1,1,3.67578-14.543c4.55371,1.15137,9.207,2.18164,13.83154,3.06348a7.50047,7.50047,0,0,1-1.396,14.86816Zm115.70605-5.12793a7.50109,7.50109,0,0,1-2.05762-14.71289c4.52539-1.29394,9.06543-2.73828,13.49414-4.29394a7.49994,7.49994,0,1,1,4.97071,14.15234c-4.707,1.65332-9.53223,3.18848-14.3418,4.56348A7.4962,7.4962,0,0,1,324.64746,502.44968Zm-157.81934-6.85351a7.4906,7.4906,0,0,1-2.686-.5c-4.67236-1.793-9.34521-3.749-13.88867-5.81153a7.50022,7.50022,0,0,1,6.20215-13.6582c4.27246,1.94043,8.667,3.7793,13.06152,5.46582a7.50124,7.50124,0,0,1-2.689,14.50391Zm198.6709-8.874a7.50153,7.50153,0,0,1-3.3164-14.23242c4.21777-2.07324,8.42968-4.30273,12.51953-6.625a7.50037,7.50037,0,0,1,7.40625,13.04492c-4.34668,2.46778-8.82324,4.83594-13.30469,7.041A7.47228,7.47228,0,0,1,365.499,486.72214ZM127.52051,476.32956a7.46676,7.46676,0,0,1-3.88037-1.08691c-4.26416-2.585-8.51368-5.335-12.63037-8.1748a7.5,7.5,0,1,1,8.5166-12.34766c3.87549,2.67285,7.87549,5.26172,11.88916,7.69434a7.5008,7.5008,0,0,1-3.895,13.915Zm275.3916-12.33789a7.50086,7.50086,0,0,1-4.45117-13.542c3.78418-2.78418,7.54-5.72265,11.16406-8.73047a7.49942,7.49942,0,1,1,9.582,11.53907c-3.84765,3.19531-7.83594,6.31542-11.85547,9.27343A7.47113,7.47113,0,0,1,402.91211,463.99167Zm32.8584-28.92675a7.5,7.5,0,0,1-5.42188-12.68164c3.25489-3.40625,6.44922-6.94727,9.49219-10.52344a7.49993,7.49993,0,0,1,11.42383,9.7207c-3.22949,3.79492-6.61719,7.55176-10.07031,11.166A7.47939,7.47939,0,0,1,435.77051,435.06492Zm27.36133-34.14649a7.50131,7.50131,0,0,1-6.23438-11.66015c2.60645-3.91211,5.13086-7.95313,7.5-12.01075a7.50057,7.50057,0,0,1,12.95313,7.56641c-2.51856,4.31152-5.2002,8.60547-7.97071,12.76269A7.49494,7.49494,0,0,1,463.13184,400.91843Zm20.94238-38.42871a7.50358,7.50358,0,0,1-6.876-10.48926c1.874-4.31543,3.64063-8.74023,5.252-13.15136A7.50016,7.50016,0,1,1,496.54,343.99558c-1.71289,4.68848-3.59082,9.3916-5.582,13.97949A7.50372,7.50372,0,0,1,484.07422,362.48972Zm13.79785-41.542a7.50655,7.50655,0,0,1-7.30762-9.2207c1.07813-4.5752,2.03321-9.2461,2.83985-13.88184a7.49977,7.49977,0,1,1,14.77734,2.57226c-.85644,4.92481-1.87109,9.88672-3.01562,14.74708A7.50371,7.50371,0,0,1,497.87207,320.94773Zm6.24316-43.33594c-.14062,0-.28222-.00391-.42382-.01172a7.49976,7.49976,0,0,1-7.07129-7.90527c.252-4.52637.37988-9.13379.37988-13.69434v-.49609a7.5,7.5,0,0,1,15,0v.49609c0,4.83789-.13574,9.72559-.40332,14.52832A7.4998,7.4998,0,0,1,504.11523,277.61179ZM502.751,233.854a7.50093,7.50093,0,0,1-7.43848-6.62207c-.55176-4.67481-1.249-9.38867-2.07227-14.01172a7.5,7.5,0,1,1,14.76758-2.63086c.875,4.91113,1.61524,9.919,2.20117,14.88477a7.50025,7.50025,0,0,1-6.56933,8.32714A7.583,7.583,0,0,1,502.751,233.854Zm-8.9375-42.84375a7.50252,7.50252,0,0,1-7.17383-5.32422c-1.36426-4.49707-2.88281-9.0127-4.5127-13.42285a7.49952,7.49952,0,1,1,14.06836-5.20117c1.7334,4.6875,3.34766,9.48828,4.79785,14.26855a7.50608,7.50608,0,0,1-7.17968,9.67969Zm-16.38477-40.585a7.4992,7.4992,0,0,1-6.68164-4.084c-2.14258-4.18457-4.43945-8.35937-6.82617-12.40918a7.49994,7.49994,0,1,1,12.92187-7.61718c2.53711,4.30468,4.97852,8.74218,7.25586,13.19043a7.50353,7.50353,0,0,1-6.66992,10.91992Z"/><rect width="29" height="60" x="340.514" y="80.938" fill="#4a4f60" transform="rotate(30.846 355.014 110.938)"/><rect width="29" height="60" x="142.486" y="80.938" fill="#4a4f60" transform="rotate(149.154 156.986 110.938)"/><rect width="40" height="55" x="236" y="42.5" fill="#4a4f60"/><rect width="56" height="30" x="350.087" y="57.303" fill="#676e87" rx="5" transform="rotate(30.846 378.087 72.303)"/><path fill="#595f74" d="M405.52441,71.21824,366.03125,47.6323a5.00009,5.00009,0,0,0-6.85645,1.729l-1.37963,2.31055,32.72924,19.54639a4.99973,4.99973,0,0,1,1.729,6.85644L383.37866,92.935l6.76367,4.03955a5.00048,5.00048,0,0,0,6.85645-1.729l10.25464-17.1709A4.99973,4.99973,0,0,0,405.52441,71.21824Z"/><rect width="56" height="30" x="105.913" y="57.303" fill="#676e87" rx="5" transform="rotate(149.154 133.913 72.303)"/><path fill="#595f74" d="M163.07983,66.5322,152.8252,49.3613a5.00009,5.00009,0,0,0-6.85645-1.729l-6.76392,4.03955,8.875,14.86035a5,5,0,0,1-1.729,6.85645L113.62134,92.935l1.37988,2.31055a5.00048,5.00048,0,0,0,6.85645,1.729l39.49316-23.58593A5,5,0,0,0,163.07983,66.5322Z"/><path fill="#f66" d="M256,429.623a173.62128,173.62128,0,1,1,122.77008-50.85249A172.48653,172.48653,0,0,1,256,429.623Z"/><path fill="#ff4e4e" d="M378.76917,133.23044A172.482,172.482,0,0,0,256,82.3779c-2.509,0-5.0083.063-7.5.16846a173.61573,173.61573,0,0,1,0,346.9082c2.4917.10547,4.99084.16846,7.5.16846A173.62243,173.62243,0,0,0,378.76917,133.23044Z"/><path fill="#fff" d="M399.62,256.00144c0,2.5-.05994,5-.19007,7.48A143.61837,143.61837,0,0,1,263.49,399.43113q-3.72.19482-7.49.18994-3.765,0-7.49-.18994A143.61837,143.61837,0,0,1,112.57007,263.48142c-.13013-2.48-.19007-4.98-.19007-7.48s.05994-5,.19007-7.48047A143.61534,143.61534,0,0,1,248.54,112.57126q3.705-.19482,7.46-.18994,3.75,0,7.46.18994a143.61534,143.61534,0,0,1,135.97,135.94971C399.56006,251.00144,399.62,253.50144,399.62,256.00144Z"/><path fill="#eee" d="M399.42993,248.521A143.61534,143.61534,0,0,0,263.46,112.57126q-3.705-.19482-7.46-.18994-3.75,0-7.46.18994c-2.52661.12842-5.03955.32959-7.54.58789A143.62226,143.62226,0,0,1,369.42993,248.521c.13013,2.48047.19007,4.98047.19007,7.48047s-.05994,5-.19007,7.48A143.62539,143.62539,0,0,1,241,398.8447c2.4906.25684,4.99353.45752,7.51.58643q3.72.19482,7.49.18994,3.765,0,7.49-.18994A143.61837,143.61837,0,0,0,399.42993,263.48142c.13013-2.48.19007-4.98.19007-7.48S399.56006,251.00144,399.42993,248.521Z"/><rect width="86" height="35" x="213" y="7.5" fill="#676e87" rx="10"/><path fill="#595f74" d="M289,7.5H259a10,10,0,0,1,10,10v15a10,10,0,0,1-10,10h30a10,10,0,0,0,10-10v-15A10,10,0,0,0,289,7.5Z"/><path fill="#66c1ff" d="M263.5 113.30124V131.561a7.5 7.5 0 0 1-15 0V113.30124a5.83767 5.83767 0 0 1 .04-.73q3.705-.19482 7.46-.18994 3.75 0 7.46.18994A5.83767 5.83767 0 0 1 263.5 113.30124zM263.5 380.44138v18.85986a.56869.56869 0 0 1-.01.12989q-3.72.19482-7.49.18994-3.765 0-7.49-.18994a.56869.56869 0 0 1-.01-.12989V380.44138a7.5 7.5 0 0 1 15 0zM139.06006 256.00144a7.503 7.503 0 0 1-7.5 7.5H113a3.09048 3.09048 0 0 1-.42993-.02c-.13013-2.48-.19007-4.98-.19007-7.48s.05994-5 .19007-7.48047A3.16734 3.16734 0 0 1 113 248.50144h18.56006A7.50272 7.50272 0 0 1 139.06006 256.00144z"/><path fill="#4eb7ff" d="M399.62,256.00144c0,2.5-.05994,5-.19007,7.48a3.09048,3.09048,0,0,1-.42993.02H380.43994a7.5,7.5,0,0,1,0-15H399a3.16734,3.16734,0,0,1,.42993.01953C399.56006,251.00144,399.62,253.50144,399.62,256.00144Z"/><path fill="#ff4e4e" d="M234.92007 267.683v-2.17046c0-9.14149-5.59885-12.4552-13.94025-12.4552-2.85632 0-3.88488-2.39893-3.88488-4.79876 0-2.51407 1.02856-4.913 3.88488-4.913 6.97013 0 11.88357-2.17136 11.88357-12.56943 0-8.34094-3.99911-11.76889-11.42618-11.76889-9.25572 0-11.88357 4.68453-11.88357 9.37 0 2.9701-1.37127 4.913-5.71309 4.913-5.37039 0-6.28472-1.25658-6.28472-5.5993 0-7.42707 5.14192-19.31019 23.99562-19.31019 13.36862 0 22.9666 5.2566 22.9666 20.3392 0 9.48329-3.65642 16.45342-9.141 19.08172 6.74166 2.6283 11.6551 7.99824 11.6551 17.7109V267.683c0 18.16784-11.6551 24.90949-26.05229 24.90949-17.82468 0-25.25175-11.08347-25.25175-20.10983 0-3.99912 1.48506-5.14236 5.59886-5.14236 5.02723 0 6.28427 1.486 6.28427 4.57119 0 5.02723 4.22759 9.94023 13.48286 9.94023C230.46356 281.85172 234.92007 277.62413 234.92007 267.683zM257.08478 267.11183V233.86139c0-18.51054 11.08348-25.48067 25.5949-25.48067 14.39719 0 25.70914 6.97013 25.70914 25.48067v33.25044c0 18.51054-11.312 25.48066-25.70914 25.48066C268.16826 292.59249 257.08478 285.62237 257.08478 267.11183zm39.19245-33.25044c0-10.05537-5.14147-14.73989-13.59755-14.73989-8.56941 0-13.48241 4.68452-13.48241 14.73989v33.25044c0 10.05536 4.913 14.73989 13.48241 14.73989 8.45608 0 13.59755-4.68453 13.59755-14.73989z"/></svg>