<svg xmlns="http://www.w3.org/2000/svg" viewBox="0 0 64 64"><g data-name="Layer 2"><path fill="#78909c" d="M36.6,3A14.6,14.6,0,0,0,23,12.5L8.3,52.7a1,1,0,0,0,.9,1.4h4.3a1,1,0,0,0,.9-.7L28.7,14.5A8.4,8.4,0,0,1,45,17.4V22a.9.9,0,0,0,1,1h4a.9.9,0,0,0,1-1V17.4A14.5,14.5,0,0,0,36.6,3Z"/><path fill="#546e7a" d="M36.6,5.5a11.9,11.9,0,0,0-11.2,7.8l-15,40.8h3.1a1,1,0,0,0,.9-.7L28.7,14.5A8.4,8.4,0,0,1,45,17.4V22a.9.9,0,0,0,1,1h2.5V17.4A11.9,11.9,0,0,0,36.6,5.5Z"/><path fill="#263238" d="M18.3,25.3,8.3,52.7a1,1,0,0,0,.9,1.4h4.3a1,1,0,0,0,.9-.7l9.5-25.8Z"/><path fill="#212121" d="M13.5,54a1,1,0,0,0,.9-.7l9.5-25.8-3.2-1.3L10.4,54.1Z"/><rect width="16" height="5" x="3" y="52" fill="#757575" rx="1"/><path fill="#616161" d="M18,52H16.2v1a1,1,0,0,1-1,1H3v2a.9.9,0,0,0,1,1H18a.9.9,0,0,0,1-1V53A.9.9,0,0,0,18,52Z"/><path fill="#fbc02d" d="M51,22H43A13,13,0,0,0,30,35V52a5,5,0,0,0,5,5H55a.9.9,0,0,0,1-1V27A5,5,0,0,0,51,22Z"/><path fill="#ff8f00" d="M51,22H49V40.5a10,10,0,0,1-10,10H30V52a5,5,0,0,0,5,5H55a.9.9,0,0,0,1-1V27A5,5,0,0,0,51,22Z"/><circle cx="55" cy="51" r="6" fill="#212121"/><circle cx="55" cy="51" r="2" fill="#757575"/><path fill="#e65100" d="M35,46.7a7,7,0,0,0,7-7V22.1A13,13,0,0,0,30,35V46.7Z"/></g><path d="M4,57H18a.9.9,0,0,0,1-1V53a.9.9,0,0,0-1-1H14.9L28.7,14.5A8.4,8.4,0,0,1,45,17.4V22H43A13,13,0,0,0,30,35V52a5,5,0,0,0,5,5H55a6,6,0,0,0,1-11.9V27a5,5,0,0,0-5-5V17.4a14.4,14.4,0,0,0-28-4.9L8.5,52H4a.9.9,0,0,0-1,1v3A.9.9,0,0,0,4,57ZM32,35a11.1,11.1,0,0,1,8-10.6V39.7a5,5,0,0,1-5,5H32ZM59,51a4,4,0,1,1-4-4A4,4,0,0,1,59,51ZM54,27V45.1A6,6,0,0,0,50.5,55H35a2.9,2.9,0,0,1-3-3V46.7h3a7,7,0,0,0,7-7V24.1h9A2.9,2.9,0,0,1,54,27ZM24.9,13.1A12.4,12.4,0,0,1,49,17.4V22H47V17.4a10.4,10.4,0,0,0-20.2-3.6l-4.7,13L20.2,26ZM19.5,27.9l1.9.7L12.8,52H10.7ZM5,54H17v1H5Z" data-name="Layer 3"/></svg>