<?xml version="1.0" ?><svg fill="none" height="24" viewBox="0 0 24 24" width="24" xmlns="http://www.w3.org/2000/svg"><path clip-rule="evenodd" d="M1.5 5C1.5 3.067 3.067 1.5 5 1.5H19C20.933 1.5 22.5 3.067 22.5 5V19C22.5 20.933 20.933 22.5 19 22.5H5C3.067 22.5 1.5 20.933 1.5 19V5ZM5 2.5C3.61929 2.5 2.5 3.61929 2.5 5V19C2.5 20.3807 3.61929 21.5 5 21.5H19C20.3807 21.5 21.5 20.3807 21.5 19V5C21.5 3.61929 20.3807 2.5 19 2.5H5Z" fill="white" fill-rule="evenodd"/><path clip-rule="evenodd" d="M4.09886 6.70153C4.1932 6.57473 4.34195 6.5 4.5 6.5H7.5C7.72944 6.5 7.92943 6.65615 7.98508 6.87873L9.01166 10.9851C9.15139 11.544 9.51876 11.9983 10 12.2591V8.58114L9.52566 7.15811C9.47484 7.00564 9.50041 6.83803 9.59438 6.70764C9.68836 6.57726 9.83928 6.5 10 6.5H13.5C13.7761 6.5 14 6.72386 14 7V9.316C14.3305 9.16347 14.6182 8.92135 14.8261 8.6094L16.084 6.72265C16.1767 6.58355 16.3328 6.5 16.5 6.5H19.5C19.6801 6.5 19.8464 6.5969 19.9351 6.75365C20.0239 6.9104 20.0214 7.10278 19.9288 7.25725L17.8548 10.7138C17.3798 11.5055 17.3798 12.4945 17.8548 13.2862L19.9288 16.7428C20.0214 16.8972 20.0239 17.0896 19.9351 17.2463C19.8464 17.4031 19.6801 17.5 19.5 17.5H16.5C16.3328 17.5 16.1767 17.4164 16.084 17.2774L14.8261 15.3906C14.6182 15.0787 14.3305 14.8365 14 14.684V17C14 17.2761 13.7761 17.5 13.5 17.5H9.7321C8.18647 17.5 6.82384 16.4862 6.3797 15.0057L4.02109 7.14367C3.97567 6.99229 4.00451 6.82834 4.09886 6.70153ZM5.17202 7.5L7.33753 14.7184C7.65477 15.7758 8.62808 16.5 9.7321 16.5H13V14.0229C13 13.8785 13.0624 13.7412 13.1712 13.6462C13.28 13.5513 13.4245 13.508 13.5676 13.5275C14.4133 13.6428 15.1776 14.115 15.6582 14.8359L16.7676 16.5H18.6169L16.9973 13.8007C16.3323 12.6923 16.3323 11.3077 16.9974 10.1993L18.6169 7.5H16.7676L15.6582 9.1641C15.1776 9.88501 14.4133 10.3572 13.5676 10.4725C13.4245 10.492 13.28 10.4487 13.1712 10.3538C13.0624 10.2588 13 10.1215 13 9.97708V7.5H10.6937L10.9743 8.34189C10.9913 8.39287 11 8.44626 11 8.5V12.959C11 13.1074 10.9341 13.2481 10.8201 13.3431C10.7061 13.4381 10.5558 13.4776 10.4098 13.4508C9.26938 13.2417 8.3307 12.3843 8.04152 11.2276L7.10962 7.5H5.17202Z" fill="white" fill-rule="evenodd"/></svg>