<?xml version="1.0" ?><svg fill="none" height="24" viewBox="0 0 24 24" width="24" xmlns="http://www.w3.org/2000/svg"><path clip-rule="evenodd" d="M1 5C1 2.79086 2.79086 1 5 1H19C21.2091 1 23 2.79086 23 5V19C23 21.2091 21.2091 23 19 23H5C2.79086 23 1 21.2091 1 19V5ZM3.69772 6.40307C3.88641 6.14946 4.1839 6 4.50001 6H7.50001C7.95888 6 8.35886 6.3123 8.47015 6.75746L9.49674 10.8638L9.50001 10.8767V8.66228L9.05132 7.31623C8.94968 7.01128 9.00081 6.67606 9.18877 6.41529C9.37672 6.15452 9.67857 6 10 6H10.5H13.5C14.0523 6 14.5 6.44772 14.5 7V8.19722L15.668 6.4453C15.8534 6.1671 16.1657 6 16.5 6H19.5C19.8603 6 20.1927 6.19379 20.3702 6.5073C20.5477 6.82081 20.5429 7.20556 20.3575 7.5145L18.2836 10.971C17.9036 11.6044 17.9036 12.3956 18.2836 13.029L20.3575 16.4855C20.5429 16.7944 20.5477 17.1792 20.3702 17.4927C20.1927 17.8062 19.8603 18 19.5 18H16.5C16.1657 18 15.8534 17.8329 15.668 17.5547L14.5 15.8028V17C14.5 17.5523 14.0523 18 13.5 18H12H10.5H9.7321C7.96567 18 6.40838 16.8413 5.90079 15.1494L3.54218 7.28735C3.45135 6.98457 3.50902 6.65668 3.69772 6.40307Z" fill="white" fill-rule="evenodd"/></svg>