<svg xmlns="http://www.w3.org/2000/svg" data-name="Layer 1" viewBox="0 0 512 512"><path fill="#8cd0ff" d="M481.95042,251.13659a3.38,3.38,0,0,0,.54577-5.91823l-23.91054-15.962a9.29489,9.29489,0,0,1-3.80647-10.17856l5.81332-21.29438a9.29506,9.29506,0,0,0-4.57952-10.64209l-22.21793-11.89765a9.295,9.295,0,0,1-4.51244-10.87572l6.98879-23.19479a9.295,9.295,0,0,0-4.54848-10.89491L412.198,119.93283a9.29516,9.29516,0,0,1-4.80477-9.81438l4.98463-28.50737a3.38061,3.38061,0,0,0-4.66172-3.68915L28.04958,240.57418a3.38,3.38,0,0,0-.54409,5.91935L51.587,262.54875a9.29489,9.29489,0,0,1,3.79275,10.24793l-5.97626,21.27039a9.29508,9.29508,0,0,0,4.752,10.80774L75.7723,315.8147a9.29509,9.29509,0,0,1,4.76294,10.76841L73.8254,350.87365a9.295,9.295,0,0,0,4.54748,10.65581l19.42991,10.48a9.29515,9.29515,0,0,1,4.74506,9.77646l-4.93426,28.31929a3.3806,3.3806,0,0,0,4.66206,3.68715Z"/><path fill="#66c1ff" d="M482.49622,245.21826l-23.91053-15.96191a9.29461,9.29461,0,0,1-3.80652-10.17847l5.81336-21.29443a9.29505,9.29505,0,0,0-4.57959-10.64209L433.795,175.24365a9.295,9.295,0,0,1-4.51245-10.87573l6.98889-23.1947a9.29511,9.29511,0,0,0-4.54858-10.8949L412.198,119.93286a9.29528,9.29528,0,0,1-4.80469-9.81445l4.98462-28.50733a3.38073,3.38073,0,0,0-4.66187-3.6892L381.02344,89.3573l-3.63013,20.76111a9.29528,9.29528,0,0,0,4.80469,9.81445l19.5249,10.34546a9.29511,9.29511,0,0,1,4.54858,10.8949l-6.98889,23.1947a9.295,9.295,0,0,0,4.51245,10.87573l22.2179,11.89771a9.29505,9.29505,0,0,1,4.57959,10.64209l-5.81336,21.29443a9.29461,9.29461,0,0,0,3.80652,10.17847l23.91053,15.96191a3.38009,3.38009,0,0,1-.54578,5.91834L98.96313,402.35913l-1.3496,7.74609a3.38079,3.38079,0,0,0,4.6621,3.68726L481.95044,251.1366A3.38009,3.38009,0,0,0,482.49622,245.21826Z"/><path fill="#66c1ff" d="M500.36033,434.35713a4,4,0,0,0,3.35178-6.183l-18.56464-28.504a11,11,0,0,1,.60408-12.84512l16.24665-20.45326a11,11,0,0,0-.02061-13.70953l-18.618-23.29446a11,11,0,0,1,.16122-13.9324l18.41072-21.97262a11,11,0,0,0,.131-13.97007l-16.41267-20.35124a11,11,0,0,1-.65134-12.91418l18.70707-28.68509a4,4,0,0,0-3.35047-6.185H347.41641a6.00007,6.00007,0,0,0-2.68328.63344l-26.04984,13.02492a6,6,0,0,1-5.36657,0l-26.04984-13.02492a6.00007,6.00007,0,0,0-2.68328-.63344H11.645a4,4,0,0,0-3.35047,6.185l18.70707,28.68509a11,11,0,0,1-.65134,12.91418L9.93754,279.49267a11,11,0,0,0,.131,13.97007l18.41072,21.97262a11,11,0,0,1,.16122,13.9324l-18.618,23.29446a11,11,0,0,0-.02061,13.70953L26.24845,386.825a11,11,0,0,1,.60408,12.84512l-18.56464,28.504a4,4,0,0,0,3.35178,6.183H284.5836a6.0001,6.0001,0,0,0,2.68328-.63343l26.04984-13.02492a6,6,0,0,1,5.36656,0l26.04984,13.02492a6.00011,6.00011,0,0,0,2.68329.63343Z"/><path fill="#4eb7ff" d="M501.99829,366.37158a11,11,0,0,0-.02075-13.70947l-18.61792-23.29443a11,11,0,0,1,.16113-13.93238l18.41077-21.97265a11,11,0,0,0,.131-13.97l-16.41272-20.35132a10.99989,10.99989,0,0,1-.65124-12.91407l18.707-28.68518a4,4,0,0,0-3.35059-6.18493h-30a4,4,0,0,1,3.35059,6.18493l-18.707,28.68518a10.99989,10.99989,0,0,0,.65124,12.91407l16.41272,20.35132a11,11,0,0,1-.131,13.97L453.52075,315.4353a11,11,0,0,0-.16113,13.93238l18.61792,23.29443a11,11,0,0,1,.02075,13.70947L455.75146,386.825a11.0002,11.0002,0,0,0-.604,12.84522l18.5647,28.5039a4.00013,4.00013,0,0,1-3.35181,6.18311h30a4.00013,4.00013,0,0,0,3.35181-6.18311l-18.5647-28.5039a11.0002,11.0002,0,0,1,.604-12.84522Z"/><path fill="#fff" d="M366.90332 314.05859a22.50079 22.50079 0 1 1 15.91016-6.59082h0l-.001.001A22.3487 22.3487 0 0 1 366.90332 314.05859zm0-29.99609a7.498 7.498 0 1 0 5.30273 12.7998l.001-.001a7.49659 7.49659 0 0 0-5.30371-12.79883zM429.5 376.65527a22.50079 22.50079 0 1 1 15.91016-6.59082h0l-.001.001A22.3487 22.3487 0 0 1 429.5 376.65527zm0-29.999a7.49951 7.49951 0 1 0 5.30273 12.80273l.001-.001A7.499 7.499 0 0 0 429.5 346.65625zM361.98242 365.5332a7.5 7.5 0 0 1-5.30371-12.80371L428.07422 281.334a7.50058 7.50058 0 0 1 10.60742 10.60743l-71.39551 71.3955A7.481 7.481 0 0 1 361.98242 365.5332zM316 403.19043a7.49943 7.49943 0 0 1-7.5-7.5v-12.667a7.5 7.5 0 1 1 15 0v12.667A7.49943 7.49943 0 0 1 316 403.19043zm0-44.334a7.49944 7.49944 0 0 1-7.5-7.5v-12.666a7.5 7.5 0 0 1 15 0v12.666A7.49944 7.49944 0 0 1 316 358.85645zm0-44.333a7.49943 7.49943 0 0 1-7.5-7.5v-12.667a7.5 7.5 0 0 1 15 0v12.667A7.49943 7.49943 0 0 1 316 314.52344zm0-44.333a7.49943 7.49943 0 0 1-7.5-7.5v-12.667a7.5 7.5 0 1 1 15 0v12.667A7.49943 7.49943 0 0 1 316 270.19043z"/><rect width="193.478" height="64.507" x="77.522" y="290.604" fill="#fff" rx="10"/><path fill="#eee" d="M261,290.60376H231a10.0001,10.0001,0,0,1,10,10v44.50659a10,10,0,0,1-10,10h30a10,10,0,0,0,10-10V300.60376A10.0001,10.0001,0,0,0,261,290.60376Z"/><path fill="#272a33" d="M315.99988,286.856a7.49943,7.49943,0,0,0-7.5,7.5v12.667a7.5,7.5,0,0,0,15,0V294.356A7.49943,7.49943,0,0,0,315.99988,286.856Zm0,44.334a7.49943,7.49943,0,0,0-7.5,7.5v12.666a7.5,7.5,0,0,0,15,0V338.69A7.49943,7.49943,0,0,0,315.99988,331.19Zm-55-48.08692H87.52234a17.52,17.52,0,0,0-17.5,17.5v44.50684a17.52,17.52,0,0,0,17.5,17.5H260.99988a17.52,17.52,0,0,0,17.5-17.5V300.60305A17.52,17.52,0,0,0,260.99988,283.10305Zm2.5,62.00684a2.50232,2.50232,0,0,1-2.5,2.5H87.52234a2.50263,2.50263,0,0,1-2.5-2.5V300.60305a2.50263,2.50263,0,0,1,2.5-2.5H260.99988a2.50232,2.50232,0,0,1,2.5,2.5Zm52.5,30.41308a7.49944,7.49944,0,0,0-7.5,7.5V395.69a7.5,7.5,0,0,0,15,0V383.023A7.49944,7.49944,0,0,0,315.99988,375.523Zm97.59082-37.27832A22.49967,22.49967,0,1,0,445.40906,370.065l.001-.001a22.49967,22.49967,0,0,0-31.81933-31.81934Zm21.21289,21.2129-.001.001a7.40865,7.40865,0,1,1,.001-.001Zm73.06738,11.5791a18.41229,18.41229,0,0,0-.03515-23.05762l-18.61817-23.29395a3.51081,3.51081,0,0,1,.05176-4.43359l18.41016-21.97168a18.5411,18.5411,0,0,0,.2207-23.49609l-16.41309-20.35059a3.49229,3.49229,0,0,1-.207-4.10937l18.70606-28.68457a11.49906,11.49906,0,0,0-9.63086-17.78223H466.70886l1.11914-4.09863a16.7123,16.7123,0,0,0-8.27539-19.22852l-22.21679-11.89746a1.80223,1.80223,0,0,1-.87305-2.10059l6.98926-23.19531a16.82876,16.82876,0,0,0-8.21778-19.68555l-19.52441-10.3457a1.79055,1.79055,0,0,1-.92871-1.89551L419.7655,82.9009a10.88037,10.88037,0,0,0-15.00293-11.873L94.71033,203.857H11.6449a11.49975,11.49975,0,0,0-9.63282,17.78125l18.707,28.68555a3.4916,3.4916,0,0,1-.207,4.10937L4.099,274.78372a18.541,18.541,0,0,0,.2207,23.49511l18.41065,21.97364a3.5107,3.5107,0,0,1,.05175,4.43261L4.16345,347.979a18.41292,18.41292,0,0,0-.03418,23.05762l16.24658,20.45312a3.49528,3.49528,0,0,1,.1919,4.08692l-18.564,28.50293A11.49992,11.49992,0,0,0,11.63953,441.857H285.99988a7.50725,7.50725,0,0,0,3.35449-.792l26.64551-13.32325L342.64539,441.065a7.50725,7.50725,0,0,0,3.35449.792H500.36023a11.49941,11.49941,0,0,0,9.63574-17.77637l-18.56445-28.5039a3.49615,3.49615,0,0,1,.19336-4.08692ZM403.68054,87.80911l-3.6748,21.01562a16.75159,16.75159,0,0,0,8.68066,17.73438l19.52539,10.34668a1.79806,1.79806,0,0,1,.87891,2.10254l-6.99024,23.19629a16.84663,16.84663,0,0,0,8.1543,19.65039l22.21777,11.89843a1.78442,1.78442,0,0,1,.88477,2.05371l-2.198,8.04981H345.99988a7.50712,7.50712,0,0,0-3.35449.792l-26.64551,13.32324L289.35437,204.649a7.50712,7.50712,0,0,0-3.35449-.792H132.79968Zm75.18262,315.95312,15.041,23.09473H347.77039l-28.416-14.208a7.49585,7.49585,0,0,0-6.709,0l-28.416,14.208H18.09558l15.0415-23.09473A18.47693,18.47693,0,0,0,32.121,382.15969L15.87488,361.70755a3.48481,3.48481,0,0,1,.00586-4.36329l18.61865-23.29492a18.55419,18.55419,0,0,0-.272-23.43066L15.81677,288.646a3.50967,3.50967,0,0,1-.0415-4.44629l16.4126-20.34961a18.4536,18.4536,0,0,0,1.0957-21.71972L18.10632,218.857H96.225l.02685.002c.01294,0,.02612-.002.03906-.002H284.22937l28.416,14.208a7.49585,7.49585,0,0,0,6.709,0l28.416-14.208h146.123L478.7157,242.1304a18.45509,18.45509,0,0,0,1.0957,21.71875l16.41309,20.35058a3.50844,3.50844,0,0,1-.042,4.44629L477.77136,310.6177a18.55692,18.55692,0,0,0-.27051,23.43262L496.119,357.34426a3.48409,3.48409,0,0,1,.00586,4.36231l-16.24512,20.45312A18.4737,18.4737,0,0,0,478.86316,403.76223ZM438.68152,281.33352a7.50317,7.50317,0,0,0-10.60742,0L356.67859,352.729A7.50058,7.50058,0,0,0,367.286,363.33645l71.39551-71.39551A7.50139,7.50139,0,0,0,438.68152,281.33352Zm-55.86914,26.13477.001-.001a22.22591,22.22591,0,1,0-.001.001ZM361.60046,286.2554a7.49955,7.49955,0,0,1,10.60645,10.60547l-.001.001a7.49954,7.49954,0,0,1-10.60547-10.60644ZM315.99988,242.523a7.49944,7.49944,0,0,0-7.5,7.5V262.69a7.5,7.5,0,0,0,15,0V250.023A7.49944,7.49944,0,0,0,315.99988,242.523Z"/></svg>