<svg xmlns="http://www.w3.org/2000/svg" width="24" height="24" fill="none" viewBox="0 0 24 24"><path fill="#F8C630" d="M20 1H4C3.20435 1 2.44129 1.31607 1.87868 1.87868C1.31607 2.44129 1 3.20435 1 4V20C1 20.7956 1.31607 21.5587 1.87868 22.1213C2.44129 22.6839 3.20435 23 4 23H20C20.7956 23 21.5587 22.6839 22.1213 22.1213C22.6839 21.5587 23 20.7956 23 20V4C23 3.20435 22.6839 2.44129 22.1213 1.87868C21.5587 1.31607 20.7956 1 20 1V1ZM21 20C21 20.2652 20.8946 20.5196 20.7071 20.7071C20.5196 20.8946 20.2652 21 20 21H4C3.73478 21 3.48043 20.8946 3.29289 20.7071C3.10536 20.5196 3 20.2652 3 20V4C3 3.73478 3.10536 3.48043 3.29289 3.29289C3.48043 3.10536 3.73478 3 4 3H20C20.2652 3 20.5196 3.10536 20.7071 3.29289C20.8946 3.48043 21 3.73478 21 4V20Z"/><path fill="#F8EED0" d="M20 3H4C3.73478 3 3.48043 3.10536 3.29289 3.29289C3.10536 3.48043 3 3.73478 3 4V20C3 20.2652 3.10536 20.5196 3.29289 20.7071C3.48043 20.8946 3.73478 21 4 21H20C20.2652 21 20.5196 20.8946 20.7071 20.7071C20.8946 20.5196 21 20.2652 21 20V4C21 3.73478 20.8946 3.48043 20.7071 3.29289C20.5196 3.10536 20.2652 3 20 3V3ZM17.16 10.16L11.22 16.1C11.0337 16.2847 10.7823 16.3889 10.52 16.39C10.3884 16.3908 10.2579 16.3655 10.1361 16.3158C10.0143 16.266 9.90344 16.1927 9.81 16.1L6.81 13.1C6.64617 12.9087 6.56057 12.6626 6.57029 12.4109C6.58001 12.1593 6.68434 11.9205 6.86244 11.7424C7.04053 11.5643 7.27927 11.46 7.53095 11.4503C7.78262 11.4406 8.0287 11.5262 8.22 11.69L10.52 14L15.75 8.77C15.9413 8.60617 16.1874 8.52057 16.4391 8.53029C16.6907 8.54001 16.9295 8.64434 17.1076 8.82244C17.2857 9.00053 17.39 9.23927 17.3997 9.49095C17.4094 9.74262 17.3238 9.9887 17.16 10.18V10.16Z"/><path fill="#F8C630" d="M17.16 10.16L11.22 16.1C11.0338 16.2847 10.7824 16.3889 10.52 16.39C10.3884 16.3908 10.258 16.3655 10.1361 16.3158C10.0143 16.266 9.90348 16.1927 9.81004 16.1L6.81004 13.1C6.64621 12.9087 6.5606 12.6626 6.57033 12.4109C6.58005 12.1593 6.68438 11.9205 6.86247 11.7424C7.04057 11.5643 7.27931 11.46 7.53098 11.4503C7.78266 11.4406 8.02874 11.5262 8.22004 11.69L10.52 14L15.75 8.77C15.9413 8.60617 16.1874 8.52057 16.4391 8.53029C16.6908 8.54001 16.9295 8.64434 17.1076 8.82243C17.2857 9.00053 17.39 9.23927 17.3997 9.49094C17.4095 9.74262 17.3239 9.9887 17.16 10.18V10.16Z"/></svg>