<svg xmlns="http://www.w3.org/2000/svg" data-name="Layer 1" viewBox="0 0 512 512"><path fill="#f7f7f7" d="M458.21242,217.4458l-71-45.873V127.5a8,8,0,0,1,8-8h55a8,8,0,0,1,8,8Z"/><path fill="#eee" d="M450.2124,119.5h-30a8,8,0,0,1,8,8v70.56281l30,19.383V127.5A8,8,0,0,0,450.2124,119.5Z"/><path fill="#fbfbfb" d="M56.47429,233.36687V489.5a15,15,0,0,0,15,15H440.52571a15,15,0,0,0,15-15V233.36687L254.84956,113.13248Z"/><path fill="#eee" d="M254.84961,113.13245,232.47925,111.691l178.04638,106.6759V489.5a14.99992,14.99992,0,0,1-15,15h45a14.99992,14.99992,0,0,0,15-15V233.36688Z"/><path fill="#63ea86" d="M487.97993,236.68324,256.032,86.81729,24.08226,236.8259a5,5,0,0,0-2.2846,4.23325l.19253,27.68557a5,5,0,0,0,7.71349,4.16479L256.032,126.66445,482.36,272.90937a5,5,0,0,0,7.71348-4.16492l.19282-27.82691A5,5,0,0,0,487.97993,236.68324Z"/><path fill="#3ce568" d="M226.032 126.66443L21.91931 258.55457l.07092 10.19012a4.9999 4.9999 0 0 0 7.71338 4.16479L241.032 136.35687zM487.98 236.68323L256.032 86.81726l-14.99292 9.69635L457.98 236.68323a4.99988 4.99988 0 0 1 2.28638 4.23431l-.12232 17.63672 22.21607 14.3551a5 5 0 0 0 7.71338-4.16491l.19287-27.82691A4.99988 4.99988 0 0 0 487.98 236.68323z"/><path fill="#dedede" d="M101.47429,504.5V337.22211a15,15,0,0,1,15-15h89a15,15,0,0,1,15,15V504.5Z"/><path fill="#cecece" d="M205.47437,322.22211h-45a15,15,0,0,1,15,15V504.5h45V337.22211A15,15,0,0,0,205.47437,322.22211Z"/><path fill="#f66" d="M325.23777,76.73777c0,35.79963-42.32819,88.66707-60.793,110.02623a11.15852,11.15852,0,0,1-16.88964,0c-18.46476-21.35916-60.793-74.2266-60.793-110.02623a69.23777,69.23777,0,0,1,138.47554,0Z"/><path fill="#ff4e4e" d="M256,7.5a69.42843,69.42843,0,0,0-15,1.64813,69.25006,69.25006,0,0,1,54.23779,67.5896c0,32.0282-33.87719,77.71381-54.23779,102.27985,2.39746,2.8927,4.60986,5.49627,6.55518,7.7464a11.15853,11.15853,0,0,0,16.88964,0c18.46485-21.35913,60.793-74.22663,60.793-110.02625A69.23773,69.23773,0,0,0,256,7.5Z"/><circle cx="256" cy="77.296" r="19.543" fill="#fff"/><path fill="#b3e0ff" d="M410.53,337.22v67.11a15.00543,15.00543,0,0,1-15,15h-89a14.999,14.999,0,0,1-15-15V337.22a14.99906,14.99906,0,0,1,15-15h89A15.00547,15.00547,0,0,1,410.53,337.22Z"/><path fill="#272a33" d="M492.04968,230.38333l-26.33691-17.01679v-85.867a15.51737,15.51737,0,0,0-15.5-15.5h-55a15.51736,15.51736,0,0,0-15.5,15.5v30.30084l-59.25855-38.28809c7.37476-14.88629,12.283-29.70135,12.283-42.775a76.73731,76.73731,0,1,0-153.47461,0c0,13.09076,4.9209,27.92761,12.312,42.83362L20.00769,230.52835a12.44561,12.44561,0,0,0-5.71,10.58252l.19238,27.68505a12.4999,12.4999,0,0,0,19.28418,10.4126l15.2002-9.82184V489.49954a22.52554,22.52554,0,0,0,22.5,22.5H440.52527a22.52554,22.52554,0,0,0,22.5-22.5V269.34469l15.26367,9.86286a12.4995,12.4995,0,0,0,19.28418-10.41114l.19336-27.82812A12.44089,12.44089,0,0,0,492.04968,230.38333ZM394.71277,127.49954a.50065.50065,0,0,1,.5-.5h55a.50065.50065,0,0,1,.5.5v76.17523l-56-36.18262Zm-138.71289-112.5a61.80742,61.80742,0,0,1,61.7373,61.73779c0,34.24951-45.13379,89.12012-58.96679,105.12158a3.65782,3.65782,0,0,1-5.541,0c-13.833-16.00146-58.9668-70.87207-58.9668-105.12158A61.80743,61.80743,0,0,1,255.99988,14.99954ZM29.45789,264.13821,29.3075,242.378,198.73645,132.80337c3.08594,5.28418,6.39355,10.51294,9.814,15.61176Zm183.5166,232.86133h-104V337.22171a7.5082,7.5082,0,0,1,7.5-7.5h89a7.5082,7.5082,0,0,1,7.5,7.5Zm235.05078-7.5a7.5082,7.5082,0,0,1-7.5,7.5H227.97449V337.22171a22.52554,22.52554,0,0,0-22.5-22.5h-89a22.52554,22.52554,0,0,0-22.5,22.5V496.99954h-22.5a7.5082,7.5082,0,0,1-7.5-7.5V259.69418l153.19238-98.98786c8.66687,11.86554,17.45435,22.56379,24.71484,30.96216a18.65752,18.65752,0,0,0,28.23633,0c7.26612-8.40509,16.062-19.11346,24.73535-30.99035l153.17188,98.97412Zm34.58008-225.36231L303.46863,148.38613c3.426-5.108,6.73852-10.34631,9.82812-15.63989l169.46,109.49158ZM283.04285,77.29544a27.043,27.043,0,1,0-27.043,27.043A27.0737,27.0737,0,0,0,283.04285,77.29544Zm-39.08594,0a12.043,12.043,0,1,1,12.043,12.043A12.05636,12.05636,0,0,1,243.95691,77.29544Zm40.06836,259.92627v67.10351a22.52554,22.52554,0,0,0,22.5,22.5h89a22.52554,22.52554,0,0,0,22.5-22.5V337.22171a22.52554,22.52554,0,0,0-22.5-22.5h-89A22.52554,22.52554,0,0,0,284.02527,337.22171Zm74.5-7.5h37a7.5082,7.5082,0,0,1,7.5,7.5v26.05175h-44.5Zm0,48.55175h44.5v26.05176a7.5082,7.5082,0,0,1-7.5,7.5h-37Zm-59.5-41.05175a7.5082,7.5082,0,0,1,7.5-7.5h37v33.55175h-44.5Zm0,41.05175h44.5v33.55176h-37a7.5082,7.5082,0,0,1-7.5-7.5Z"/></svg>