<svg xmlns="http://www.w3.org/2000/svg" data-name="Layer 1" viewBox="0 0 512 512"><path fill="#ffe966" d="M264.73116,12.92751l16.59537,33.6259a9.7366,9.7366,0,0,0,7.33105,5.32633L325.766,57.2719a9.7366,9.7366,0,0,1,5.39615,16.60765l-26.85188,26.17411a9.73662,9.73662,0,0,0-2.80021,8.61817l6.33887,36.95844a9.7366,9.7366,0,0,1-14.12731,10.2641L260.53084,138.445a9.73659,9.73659,0,0,0-9.06168,0l-33.19075,17.44941a9.7366,9.7366,0,0,1-14.12731-10.2641L210.49,108.67183a9.73662,9.73662,0,0,0-2.80021-8.61817L180.83788,73.87955A9.7366,9.7366,0,0,1,186.234,57.2719l37.10839-5.39216a9.7366,9.7366,0,0,0,7.33105-5.32633l16.59537-33.6259A9.7366,9.7366,0,0,1,264.73116,12.92751Z"/><path fill="#ffe236" d="M331.16211,73.87952A9.73655,9.73655,0,0,0,325.766,57.27191l-37.1084-5.39221a9.73667,9.73667,0,0,1-7.33105-5.32629l-16.5954-33.62592a9.73656,9.73656,0,0,0-17.46228,0l-2.7821,5.63709,16.1715,32.76709a9.73676,9.73676,0,0,0,7.33106,5.32635l37.1084,5.39215a9.73656,9.73656,0,0,1,5.39612,16.60761L283.642,104.83191a9.7366,9.7366,0,0,0-2.80017,8.61816l6.33886,36.95844a10.0405,10.0405,0,0,1,.13727,2.11926l6.40369,3.36658a9.73657,9.73657,0,0,0,14.12726-10.2641L301.51,108.67181a9.73665,9.73665,0,0,1,2.80023-8.61816Z"/><path fill="#ffe966" d="M86.60566 142.34539l15.11658 30.62954a8.869 8.869 0 0 0 6.67779 4.8517l33.8017 4.91167a8.869 8.869 0 0 1 4.91531 15.12776L122.6579 221.70783a8.869 8.869 0 0 0-2.55069 7.85021l5.774 33.66512a8.869 8.869 0 0 1-12.86844 9.34947L82.77963 256.67812a8.869 8.869 0 0 0-8.2542 0L44.29227 272.57263a8.869 8.869 0 0 1-12.86844-9.34947l5.774-33.66512a8.869 8.869 0 0 0-2.55069-7.85021L10.188 197.86606a8.869 8.869 0 0 1 4.91531-15.12776l33.8017-4.91167a8.869 8.869 0 0 0 6.67779-4.8517l15.11657-30.62954A8.869 8.869 0 0 1 86.60566 142.34539zM441.30061 142.34539l15.11657 30.62954a8.869 8.869 0 0 0 6.67779 4.8517l33.8017 4.91167a8.869 8.869 0 0 1 4.91531 15.12776l-24.45914 23.84177a8.869 8.869 0 0 0-2.55069 7.85021l5.774 33.66512a8.869 8.869 0 0 1-12.86844 9.34947l-30.23316-15.89451a8.869 8.869 0 0 0-8.2542 0l-30.23316 15.89451a8.869 8.869 0 0 1-12.86844-9.34947l5.774-33.66512a8.869 8.869 0 0 0-2.55069-7.85021L364.883 197.86606a8.869 8.869 0 0 1 4.91531-15.12776L403.6 177.82663a8.869 8.869 0 0 0 6.67779-4.8517l15.11658-30.62954A8.869 8.869 0 0 1 441.30061 142.34539z"/><path fill="#ffe236" d="M147.117,197.866a8.869,8.869,0,0,0-4.91528-15.12775L108.4,177.8266a8.86891,8.86891,0,0,1-6.67779-4.85169L86.60566,142.3454a8.869,8.869,0,0,0-15.90625,0l-2.54687,5.16046c.1405.2312.28894.45349.41241.70373l15.11658,30.62958a8.86891,8.86891,0,0,0,6.67779,4.85169l33.8017,4.91168a8.869,8.869,0,0,1,4.91528,15.12775l-24.4591,23.84179a8.869,8.869,0,0,0-2.55072,7.85016l5.774,33.66516c.04694.27368.05738.53943.07959.80786l5.09266,2.67737a8.869,8.869,0,0,0,12.86847-9.34949l-5.77405-33.6651a8.86918,8.86918,0,0,1,2.55072-7.85022Z"/><path fill="#ffcd85" d="M163.66109,354.745a10.00911,10.00911,0,0,1,2.99663-4.97092,555.13038,555.13038,0,0,0,41.16863-41.39387,555.38372,555.38372,0,0,0,44.49927-56.74353,19.53578,19.53578,0,0,1,22.01538-7.47223l.41724.12976a19.67293,19.67293,0,0,1,12.572,25.70918L270,316.09433a5,5,0,0,0,4.68011,6.75972h85.12674c11.77226,0,21.79864,9.15412,22.217,20.91894a21.71113,21.71113,0,0,1-21.69653,22.50233h-.52042c11.77227,0,21.79865,9.15414,22.21695,20.919a21.7112,21.7112,0,0,1-21.69653,22.50241h-14.9942c11.77224,0,21.79861,9.15408,22.217,20.91889A21.71118,21.71118,0,0,1,345.85358,453.118H331.38a21.7107,21.7107,0,0,1,21.7107,21.71021l.00006,2.71893a21.73486,21.73486,0,0,1-19.12522,21.59992c-64.89712,7.74024-134.11482,9.62693-196.709-11.97848-.35964-.12414-6.5201-2.15262-6.49757-2.24274Z"/><path fill="#ffc570" d="M352.2038,468.68671a21.7103,21.7103,0,0,1-18.23828,15.46038c-64.8971,7.74024-134.11481,9.6269-196.709-11.97851-.16565-.05719-1.56256-.51862-3.01849-1.0083l-3.47913,13.76556c-.02252.09015,6.13794,2.11859,6.49762,2.24274,62.59418,21.60541,131.81189,19.71875,196.709,11.97851a21.73493,21.73493,0,0,0,19.12524-21.6l-.00006-2.71893A21.70336,21.70336,0,0,0,352.2038,468.68671Z"/><path fill="#ffcd85" d="M317.25651,487.1686c-.35964-.12414-6.5201-2.15262-6.49757-2.24274"/><path fill="#ffc570" d="M380.68084 337.11865a21.71387 21.71387 0 0 1-20.35352 14.15662H287.26451a16.42322 16.42322 0 0 0-16.36144 15v0h89.42425A21.71107 21.71107 0 0 0 382.02386 343.773 21.00161 21.00161 0 0 0 380.68084 337.11865zM380.68084 380.77467a21.71387 21.71387 0 0 1-20.35352 14.15662H287.26451a16.42322 16.42322 0 0 0-16.36144 15v0h89.42425A21.71107 21.71107 0 0 0 382.02386 387.429 21.00167 21.00167 0 0 0 380.68084 380.77467zM366.17619 424.1049a21.71387 21.71387 0 0 1-20.35352 14.15662H272.75985a16.42321 16.42321 0 0 0-16.36143 15v0h89.42426A21.71106 21.71106 0 0 0 367.5192 430.7592 21.00193 21.00193 0 0 0 366.17619 424.1049zM257.33026 270.00342l-17.3302 46.09088a5 5 0 0 0 4.68005 6.7597h30a5 5 0 0 1-4.68-6.7597l17.3302-46.09088a19.673 19.673 0 0 0-12.572-25.70923l-.41724-.12976a19.58176 19.58176 0 0 0-20.73816 5.82934A19.65911 19.65911 0 0 1 257.33026 270.00342z"/><path fill="#66c1ff" d="M0,339.74893H136.70342a25.36415,25.36415,0,0,1,25.36415,25.36415V478.07753a25.36415,25.36415,0,0,1-25.36415,25.36415H0"/><circle cx="115.759" cy="458.442" r="15" fill="#fff"/></svg>